<?xml version="1.0" standalone="no"?>
<!DOCTYPE svg PUBLIC "-//W3C//DTD SVG 20010904//EN"
 "http://www.w3.org/TR/2001/REC-SVG-20010904/DTD/svg10.dtd">
<svg version="1.0" xmlns="http://www.w3.org/2000/svg"
 width="167.000000pt" height="154.000000pt" viewBox="0 0 167.000000 154.000000"
 preserveAspectRatio="xMidYMid meet">

<g transform="translate(0.000000,154.000000) scale(0.100000,-0.100000)"
fill="#000000" stroke="none">
<path d="M831 1517 c-45 -26 -63 -85 -40 -130 6 -12 120 -131 252 -264 l242
-243 -598 0 -597 0 0 -100 0 -100 597 0 598 0 -248 -248 c-226 -226 -249 -252
-254 -288 -9 -73 64 -130 133 -104 36 14 689 663 705 702 26 64 20 72 -344
436 -318 318 -346 344 -383 348 -23 3 -49 -1 -63 -9z"/>
</g>
</svg>
