<svg width="21" height="16" viewBox="0 0 21 16" fill="none" xmlns="http://www.w3.org/2000/svg">
<path d="M17.598 1.57755C16.3012 0.991945 14.9327 0.573992 13.5268 0.334106C13.5141 0.331996 13.501 0.333819 13.4894 0.339325C13.4777 0.344831 13.4681 0.353749 13.4618 0.364854C13.2856 0.672332 13.0906 1.07451 12.9543 1.38937C11.4389 1.16308 9.89735 1.16308 8.38188 1.38937C8.22989 1.03862 8.05796 0.696577 7.86688 0.364854C7.86047 0.353871 7.85083 0.345055 7.83923 0.339567C7.82763 0.334078 7.81461 0.332175 7.80188 0.334106C6.39565 0.572709 5.02691 0.990878 3.73068 1.57755C3.71958 1.58171 3.71031 1.58954 3.70443 1.59968C1.11195 5.41118 0.400712 9.12919 0.749458 12.8005C0.750708 12.8177 0.761958 12.8349 0.775708 12.846C2.28535 13.9463 3.97391 14.7864 5.76941 15.3304C5.78208 15.3343 5.7957 15.3342 5.80829 15.33C5.82088 15.3258 5.83178 15.3177 5.8394 15.307C6.2244 14.7905 6.5669 14.2456 6.86189 13.6725C6.86804 13.6607 6.87015 13.6472 6.86789 13.6342C6.86564 13.6211 6.85915 13.6091 6.84939 13.5999C6.84293 13.5939 6.83527 13.5893 6.82689 13.5864C6.28835 13.3827 5.76677 13.1381 5.26691 12.8546C5.25295 12.8468 5.24257 12.834 5.23791 12.8189C5.23326 12.8038 5.23469 12.7875 5.24191 12.7734C5.24616 12.7643 5.2526 12.7562 5.26066 12.7501C5.36566 12.6726 5.47066 12.5914 5.57066 12.5102C5.57949 12.5032 5.59009 12.4987 5.60132 12.4972C5.61255 12.4957 5.62399 12.4972 5.63441 12.5016C8.90812 13.9726 12.4518 13.9726 15.6856 12.5016C15.6964 12.497 15.7082 12.4954 15.7199 12.4969C15.7316 12.4984 15.7426 12.503 15.7518 12.5102C15.8518 12.5914 15.9568 12.6726 16.0618 12.7501C16.0703 12.7562 16.0771 12.7643 16.0817 12.7736C16.0862 12.783 16.0884 12.7933 16.0879 12.8036C16.0874 12.814 16.0843 12.8241 16.0789 12.833C16.0734 12.8419 16.0659 12.8493 16.0568 12.8546C15.5581 13.1407 15.0358 13.385 14.4956 13.5852C14.4869 13.5882 14.4791 13.5931 14.4726 13.5995C14.4662 13.6059 14.4612 13.6136 14.4581 13.6221C14.4552 13.6303 14.454 13.639 14.4547 13.6477C14.4553 13.6563 14.4577 13.6648 14.4618 13.6725C14.7618 14.2444 15.1056 14.7905 15.4831 15.307C15.4907 15.3177 15.5016 15.3258 15.5142 15.33C15.5268 15.3342 15.5404 15.3343 15.5531 15.3304C17.3515 14.788 19.0429 13.9479 20.5542 12.846C20.5618 12.8408 20.5681 12.8341 20.5727 12.8262C20.5772 12.8183 20.5799 12.8095 20.5805 12.8005C20.998 8.55606 19.8818 4.86879 17.623 1.60091C17.6208 1.59552 17.6174 1.59065 17.613 1.58662C17.6087 1.5826 17.6036 1.57951 17.598 1.57755ZM7.35064 10.5645C6.3644 10.5645 5.55316 9.67405 5.55316 8.58189C5.55316 7.48849 6.3494 6.59804 7.35064 6.59804C8.35938 6.59804 9.16312 7.49587 9.14812 8.58189C9.14812 9.67405 8.35188 10.5645 7.35064 10.5645ZM13.9956 10.5645C13.0106 10.5645 12.1981 9.67405 12.1981 8.58189C12.1981 7.48849 12.9943 6.59804 13.9956 6.59804C15.0043 6.59804 15.8093 7.49587 15.793 8.58189C15.793 9.67405 15.0043 10.5645 13.9956 10.5645Z" fill="white"/>
</svg>
