<svg width="21" height="21" viewBox="0 0 21 21" fill="none" xmlns="http://www.w3.org/2000/svg">
<path fill-rule="evenodd" clip-rule="evenodd" d="M6.54402 0.393252C7.61038 0.344161 7.95038 0.333252 10.6667 0.333252C13.3831 0.333252 13.7231 0.34507 14.7886 0.393252C15.854 0.441434 16.5813 0.611434 17.2177 0.857797C17.884 1.10962 18.4886 1.50325 18.9886 2.01234C19.4977 2.51143 19.8904 3.11507 20.1413 3.78234C20.3886 4.41871 20.5577 5.14598 20.6067 6.20962C20.6558 7.2778 20.6667 7.6178 20.6667 10.3333C20.6667 13.0496 20.6549 13.3896 20.6067 14.456C20.5586 15.5196 20.3886 16.2469 20.1413 16.8833C19.8904 17.5506 19.497 18.1553 18.9886 18.6551C18.4886 19.1642 17.884 19.5569 17.2177 19.8078C16.5813 20.0551 15.854 20.2242 14.7904 20.2733C13.7231 20.3223 13.3831 20.3333 10.6667 20.3333C7.95038 20.3333 7.61038 20.3214 6.54402 20.2733C5.48038 20.2251 4.75311 20.0551 4.11675 19.8078C3.4494 19.5569 2.84477 19.1635 2.34493 18.6551C1.83618 18.1557 1.44249 17.5513 1.19129 16.8842C0.94493 16.2478 0.775839 15.5205 0.726748 14.4569C0.677657 13.3887 0.666748 13.0487 0.666748 10.3333C0.666748 7.61689 0.678566 7.27689 0.726748 6.21143C0.77493 5.14598 0.94493 4.41871 1.19129 3.78234C1.44286 3.11514 1.83686 2.51081 2.34584 2.01143C2.84497 1.5028 3.449 1.10911 4.11584 0.857797C4.7522 0.611434 5.47948 0.442343 6.54311 0.393252H6.54402ZM14.7077 2.19325C13.6531 2.14507 13.3367 2.13507 10.6667 2.13507C7.99675 2.13507 7.68038 2.14507 6.62584 2.19325C5.65038 2.2378 5.12129 2.40052 4.76857 2.5378C4.3022 2.71962 3.96857 2.93507 3.61857 3.28507C3.28679 3.60784 3.03146 4.00078 2.87129 4.43507C2.73402 4.7878 2.57129 5.31689 2.52675 6.29234C2.47857 7.34689 2.46857 7.66325 2.46857 10.3333C2.46857 13.0033 2.47857 13.3196 2.52675 14.3742C2.57129 15.3496 2.73402 15.8787 2.87129 16.2314C3.03129 16.6651 3.28675 17.0587 3.61857 17.3814C3.94129 17.7133 4.33493 17.9687 4.76857 18.1287C5.12129 18.266 5.65038 18.4287 6.62584 18.4733C7.68038 18.5214 7.99584 18.5314 10.6667 18.5314C13.3377 18.5314 13.6531 18.5214 14.7077 18.4733C15.6831 18.4287 16.2122 18.266 16.5649 18.1287C17.0313 17.9469 17.3649 17.7314 17.7149 17.3814C18.0467 17.0587 18.3022 16.6651 18.4622 16.2314C18.5995 15.8787 18.7622 15.3496 18.8067 14.3742C18.8549 13.3196 18.8649 13.0033 18.8649 10.3333C18.8649 7.66325 18.8549 7.34689 18.8067 6.29234C18.7622 5.31689 18.5995 4.7878 18.4622 4.43507C18.2804 3.96871 18.0649 3.63507 17.7149 3.28507C17.3921 2.95332 16.9992 2.69799 16.5649 2.5378C16.2122 2.40052 15.6831 2.2378 14.7077 2.19325V2.19325ZM9.38948 13.416C10.1028 13.7129 10.8971 13.753 11.6367 13.5294C12.3763 13.3057 13.0153 12.8323 13.4446 12.1898C13.8739 11.5474 14.0668 10.7759 13.9904 10.007C13.9141 9.23811 13.5731 8.51959 13.0258 7.97416C12.677 7.6255 12.2551 7.35854 11.7907 7.19248C11.3263 7.02642 10.8308 6.9654 10.3399 7.01381C9.84908 7.06223 9.37507 7.21887 8.95202 7.47246C8.52898 7.72606 8.16742 8.07029 7.89339 8.48039C7.61935 8.89049 7.43965 9.35624 7.36722 9.84413C7.29479 10.332 7.33143 10.8299 7.47451 11.3019C7.61759 11.7739 7.86355 12.2084 8.19468 12.5739C8.5258 12.9395 8.93386 13.2271 9.38948 13.416ZM7.0322 6.69871C7.5095 6.22141 8.07613 5.8428 8.69975 5.58449C9.32336 5.32618 9.99175 5.19323 10.6667 5.19323C11.3417 5.19323 12.0101 5.32618 12.6338 5.58449C13.2574 5.8428 13.824 6.22141 14.3013 6.69871C14.7786 7.176 15.1572 7.74263 15.4155 8.36625C15.6738 8.98987 15.8068 9.65825 15.8068 10.3333C15.8068 11.0082 15.6738 11.6766 15.4155 12.3003C15.1572 12.9239 14.7786 13.4905 14.3013 13.9678C13.3374 14.9317 12.03 15.4733 10.6667 15.4733C9.30353 15.4733 7.99614 14.9317 7.0322 13.9678C6.06826 13.0039 5.52672 11.6965 5.52672 10.3333C5.52672 8.97003 6.06826 7.66265 7.0322 6.69871V6.69871ZM16.9467 5.95871C17.065 5.84713 17.1597 5.71296 17.2252 5.56414C17.2907 5.41531 17.3257 5.25486 17.328 5.09228C17.3304 4.9297 17.3001 4.7683 17.239 4.61762C17.1779 4.46695 17.0871 4.33008 16.9722 4.21511C16.8572 4.10013 16.7203 4.0094 16.5696 3.94827C16.419 3.88714 16.2576 3.85687 16.095 3.85924C15.9324 3.86161 15.772 3.89657 15.6231 3.96207C15.4743 4.02756 15.3401 4.12225 15.2286 4.24052C15.0116 4.47055 14.8928 4.77609 14.8974 5.09228C14.902 5.40847 15.0297 5.71041 15.2533 5.93402C15.4769 6.15762 15.7788 6.28528 16.095 6.28989C16.4112 6.2945 16.7167 6.1757 16.9467 5.95871V5.95871Z" fill="white"/>
</svg>
